<svg width="28" height="25" viewBox="0 0 28 25" fill="none" xmlns="http://www.w3.org/2000/svg">
  <path
    d="M27.75 11.25C27.75 10.587 27.4866 9.95107 27.0178 9.48223C26.5489 9.01339 25.913 8.75 25.25 8.75H17.35L18.55 3.0375C18.575 2.9125 18.5875 2.775 18.5875 2.6375C18.5875 2.125 18.375 1.65 18.0375 1.3125L16.7125 0L8.4875 8.225C8.025 8.6875 7.75 9.3125 7.75 10V22.5C7.75 23.163 8.01339 23.7989 8.48223 24.2678C8.95107 24.7366 9.58696 25 10.25 25H21.5C22.5375 25 23.425 24.375 23.8 23.475L27.575 14.6625C27.6875 14.375 27.75 14.075 27.75 13.75V11.25ZM0.25 25H5.25V10H0.25V25Z"
    fill="#1B7FCC" />
</svg>