<svg width="26" height="25" viewBox="0 0 26 25" fill="none" xmlns="http://www.w3.org/2000/svg">
  <path
    d="M4.3161 21.4911C3.12223 20.338 2.16995 18.9587 1.51484 17.4337C0.859723 15.9086 0.514895 14.2684 0.500472 12.6086C0.486049 10.9489 0.80232 9.30288 1.43083 7.76668C2.05934 6.23047 2.98751 4.83482 4.16117 3.66117C5.33482 2.48751 6.73047 1.55934 8.26668 0.930832C9.80288 0.30232 11.4489 -0.0139507 13.1086 0.000471959C14.7684 0.0148947 16.4086 0.359723 17.9337 1.01484C19.4587 1.66995 20.838 2.62223 21.9911 3.8161C24.2681 6.17363 25.528 9.33116 25.4995 12.6086C25.471 15.8861 24.1564 19.0212 21.8388 21.3388C19.5212 23.6564 16.3861 24.971 13.1086 24.9995C9.83116 25.028 6.67363 23.7681 4.3161 21.4911ZM14.9036 12.6536L18.4411 9.1161L16.6786 7.3536L13.1536 10.8911L9.6161 7.3536L7.8536 9.1161L11.3911 12.6536L7.8536 16.1911L9.6161 17.9536L13.1536 14.4161L16.6911 17.9536L18.4536 16.1911L14.9161 12.6536H14.9036Z"
    fill="#D5214B" />
</svg>